# AST/ASF file generated using VICON BodyLanguage
# -----------------------------------------------
:version 1.10
:name VICON
:units
  mass 1.0
  length 0.45
  angle deg
:documentation
   .ast/.asf automatically generated from VICON data using
   VICON BodyBuilder and BodyLanguage model FoxedUp or BRILLIANT.MOD
:root
   order TX TY TZ RX RY RZ
   axis XYZ
   position 0 0 0  
   orientation 0 0 0 
:bonedata
  begin
     id 1 
     name lhipjoint
     direction 0.646657 -0.683706 0.338203 
     length 2.4948 
     axis 0 0 0  XYZ
  end
  begin
     id 2 
     name lfemur
     direction 0.34202 -0.939693 0  
     length 6.79491  
     axis 0 0 20  XYZ
    dof rx ry rz
    limits (-160.0 20.0)
           (-70.0 70.0)
           (-60.0 70.0)
  end
  begin
     id 3 
     name ltibia
     direction 0.34202 -0.939693 0   
     length 7.56807   
     axis 0 0 20   XYZ
    dof rx
    limits (-10.0 170.0)
  end
  begin
     id 4 
     name lfoot
     direction 0.0679796 -0.186772 0.980048   
     length 2.53018   
     axis -90 7.62852e-016 20   XYZ
    dof rx rz
    limits (-45.0 90.0)
           (-70.0 20.0)
  end
  begin
     id 5 
     name ltoes
     direction 1.53625e-011 -4.21881e-011 1   
     length 1.26912   
     axis -90 7.62852e-016 20   XYZ
    dof rx
    limits (-90.0 20.0)
  end
  begin
     id 6 
     name rhipjoint
     direction -0.618868 -0.704065 0.348274   
     length 2.42265  
     axis 0 0 0  XYZ 
  end
  begin
     id 7 
     name rfemur
     direction -0.34202 -0.939693 0   
     length 6.73814   
     axis 0 0 -20   XYZ
    dof rx ry rz
    limits (-160.0 20.0)
           (-70.0 70.0)
           (-70.0 60.0)
  end
  begin
     id 8 
     name rtibia
     direction -0.34202 -0.939693 0   
     length 7.66799   
     axis 0 0 -20   XYZ
    dof rx
    limits (-10.0 170.0)
 end
 begin
     id 9 
     name rfoot
     direction -0.0727352 -0.199838 0.977125   
     length 2.57224  
     axis -90 -7.62852e-016 -20   XYZ
    dof rx rz
    limits (-45.0 90.0)
           (-20.0 70.0)
  end
  begin
     id 10 
     name rtoes
     direction -1.53501e-011 -4.21858e-011 1   
     length 1.28858   
     axis -90 -7.62852e-016 -20   XYZ
    dof rx
    limits (-90.0 20.0)
  end
  begin
     id 11 
     name lowerback
     direction -0.0172471 0.995767 -0.0902851   
     length 2.20206   
     axis 0 0 0   XYZ
    dof rx ry rz
    limits (-20.0 45.0)
           (-30.0 30.0)
           (-30.0 30.0)
  end
  begin
     id 12 
     name upperback
     direction -0.000110737 0.999714 0.0239043   
     length 2.19523   
     axis 0 0 0   XYZ
    dof rx ry rz
    limits (-20.0 45.0)
           (-30.0 30.0)
           (-30.0 30.0)
  end
  begin
     id 13 
     name thorax
     direction 0.00704869 0.997783 0.0661741   
     length 2.21977   
     axis 0 0 0   XYZ
    dof rx ry rz
    limits (-20.0 45.0)
           (-30.0 30.0)
           (-30.0 30.0)
  end
  begin
     id 14 
     name lowerneck
     direction -0.00407501 0.995527 0.0943846   
     length 1.83142   
     axis 0 0 0   XYZ
    dof rx ry rz
    limits (-20.0 45.0)
           (-30.0 30.0)
           (-30.0 30.0)
  end
  begin
     id 15 
     name upperneck
     direction 0.0640586 0.986486 -0.150807   
     length 1.84616   
     axis 0 0 0   XYZ
    dof rx ry rz
    limits (-20.0 45.0)
           (-30.0 30.0)
           (-30.0 30.0)
  end
  begin
     id 16
     name head
     direction 0.0188017 0.99791 -0.0618239  
     length 1.85932  
     axis 0 0 0   XYZ
    dof rx ry rz
    limits (-20.0 45.0)
           (-30.0 30.0)
           (-30.0 30.0)
  end
  begin
     id 17 
     name lclavicle
     direction 0.976074 0.206905 0.066852  
     length 3.81043  
     axis 0 0 0   XYZ
    dof ry rz
    limits (-20.0 10.0)
           (0.0 20.0)
  end
  begin
     id 18 
     name lhumerus
     direction 1 -4.48971e-011 1.86916e-027   
     length 5.37587   
     axis 180 -30 -90   XYZ
    dof rx ry rz
    limits (-60.0 90.0)
           (-90.0 90.0)
           (-90.0 90.0)
  end
  begin
     id 19
     name lradius
     direction 1 -4.48968e-011 1.69187e-027   
     length 3.35977   
     axis 180 -30 -90   XYZ
    dof rx
    limits (-10.0 170.0)
  end
  begin
     id 20
     name lwrist
     direction 1 -4.48968e-011 5.8978e-027   
     length 1.67988   
     axis -3.27506e-015 90 90   XYZ
    dof ry
    limits (-180.0 0.0)
 end
  begin
     id 21 
     name lhand
     direction 1 -4.49028e-011 1.18071e-026   
     length 0.561859   
     axis -7.52654e-015 90 90   XYZ
    dof rx rz
    limits (-90.0 90.0)
           (-45.0 45.0)
  end
  begin
     id 22 
     name lfingers
     direction 1 -4.48927e-011 2.35758e-026   
     length 0.452985   
     axis -1.50534e-014 90 90   XYZ
    dof rx
    limits (0.0 90.0)
  end
  begin
     id 23
     name lthumb
     direction 0.707107 -6.34898e-011 0.707107   
     length 0.650399   
     axis -90 45 5.69224e-014   XYZ
    dof rx rz
    limits (-45.0 45.0)
           (-45.0 45.0)
  end
  begin
     id 24 
     name rclavicle
     direction -0.988403 0.151789 0.00439714   
     length 3.6942  
     axis 0 0 0   XYZ 
    dof ry rz
    limits (-10.0 20.0)
           (-20.0 0.0)
  end
  begin
     id 25 
     name rhumerus
     direction -1 -4.48978e-011 1.62495e-027  
     length 5.22819   
     axis 180 30 90   XYZ
    dof rx ry rz
    limits (-90.0 60.0)
           (-90.0 90.0)
           (-90.0 90.0)
  end
  begin
     id 26 
     name rradius
     direction -1 -4.48961e-011 3.47796e-027   
     length 3.40764   
     axis 180 30 90   XYZ
    dof rx
    limits (-10.0 170.0)
  end
  begin
     id 27 
     name rwrist
     direction -1 -4.48949e-011 5.89602e-027   
     length 1.70382   
     axis -3.27506e-015 -90 -90   XYZ
    dof ry
    limits (-180.0 0.0)
  end
  begin
     id 28
     name rhand
     direction -1 -4.48977e-011 1.17973e-026   
     length 0.583255   
     axis -7.52654e-015 -90 -90   XYZ
    dof rx rz
    limits (-90.0 90.0)
           (-45.0 45.0)
  end
  begin
     id 29
     name rfingers
     direction -1 -4.49099e-011 2.36408e-026   
     length 0.470235   
     axis -1.50534e-014 -90 -90   XYZ
    dof rx
    limits (0.0 90.0)
  end
  begin
     id 30
     name rthumb
     direction -0.707107 -6.35011e-011 0.707107   
     length 0.675167   
     axis -90 -45 -5.69224e-014   XYZ
    dof rx rz
    limits (-45.0 45.0)
           (-45.0 45.0)
  end
:hierarchy
  begin
    root lhipjoint rhipjoint lowerback
    lhipjoint lfemur
    lfemur ltibia
    ltibia lfoot
    lfoot ltoes
    rhipjoint rfemur
    rfemur rtibia
    rtibia rfoot
    rfoot rtoes
    lowerback upperback
    upperback thorax
    thorax lowerneck lclavicle rclavicle
    lowerneck upperneck
    upperneck head
    lclavicle lhumerus
    lhumerus lradius
    lradius lwrist
    lwrist lhand lthumb
    lhand lfingers
    rclavicle rhumerus
    rhumerus rradius
    rradius rwrist
    rwrist rhand rthumb
    rhand rfingers
  end

#!OML:ASF G:\JayActor3\Patient Classification 1\Patient 1\Session 2\male.ASF
:FULLY-SPECIFIED
:DEGREES
647
root -17.4762 17.6819 -7.46344 367.55 -79.195 -350.217
lowerback 13.7926 -1.01042 0.366325
upperback 4.69839 -1.41601 1.1951
thorax -2.76043 -0.781659 1.26825
lowerneck -2.7061 -3.65654 -4.87154
upperneck -9.78908 -4.39894 10.2808
head -2.33477 -2.40447 4.35292
rclavicle 1.37161e-014 1.59028e-014
rhumerus -34.8982 18.6192 -73.7307
rradius 41.6143
rwrist -4.36352
rhand -21.8653 6.70009
rfingers 7.12502
rthumb 4.53888 -23.2313
lclavicle 1.37161e-014 1.59028e-014
lhumerus 12.2982 -23.0787 44.6778
lradius 102.78
lwrist 27.8313
lhand -18.9089 15.6258
lfingers 7.12502
lthumb 7.39312 45.4766
rfemur -51.3762 4.64563 15.1402
rtibia 78.6369
rfoot -21.5203 -5.34936
rtoes -3.5652
lfemur -23.0092 7.57463 -29.5243
ltibia 31.3932
lfoot 9.97803 -5.46328
ltoes -8.09149
648
root -17.6887 17.6986 -7.44384 367.457 -79.409 -350.517
lowerback 13.4554 -1.20348 0.308924
upperback 4.58797 -1.67097 1.25492
thorax -2.68599 -0.905614 1.39554
lowerneck -2.93625 -3.52664 -4.91009
upperneck -9.43567 -4.23763 10.2508
head -2.18757 -2.30856 4.33131
rclavicle 5.40694e-014 -3.49861e-014
rhumerus -36.2063 18.7575 -73.8166
rradius 41.891
rwrist -4.82118
rhand -21.7267 6.53702
rfingers 7.12502
rthumb 4.67265 -23.3914
lclavicle 5.40694e-014 -3.49861e-014
lhumerus 12.7377 -23.4915 44.4113
lradius 103.348
lwrist 27.9083
lhand -18.6303 15.3589
lfingers 7.12502
lthumb 7.662 45.2001
rfemur -51.2993 5.0821 15.1235
rtibia 75.5332
rfoot -21.8545 -4.80949
rtoes -4.68208
lfemur -21.6367 7.46757 -29.0643
ltibia 30.9609
lfoot 10.4749 -5.19703
ltoes -7.22547
649
root -17.906 17.7125 -7.42293 367.167 -79.6683 -350.628
lowerback 13.0842 -1.38122 0.212991
upperback 4.48633 -1.91197 1.2982
thorax -2.58212 -1.02308 1.52175
lowerneck -3.21357 -3.41524 -4.95693
upperneck -9.0569 -4.1009 10.2332
head -2.02155 -2.2236 4.31463
rclavicle -1.92821e-014 2.0276e-014
rhumerus -37.4454 18.8698 -73.8951
rradius 42.1658
rwrist -5.10651
rhand -21.5624 6.40638
rfingers 7.12502
rthumb 4.8313 -23.5185
lclavicle -1.92821e-014 2.0276e-014
lhumerus 13.0672 -23.9684 44.287
lradius 103.888
lwrist 27.9796
lhand -18.4195 15.1123
lfingers 7.12502
lthumb 7.8655 44.946
rfemur -51.0661 5.47705 15.128
rtibia 72.1982
rfoot -22.1461 -4.29033
rtoes -5.59551
lfemur -20.1791 7.46505 -28.6778
ltibia 30.4252
lfoot 10.9766 -4.90173
ltoes -6.31219
650
root -18.1279 17.7236 -7.40103 366.685 -79.9673 -350.55
lowerback 12.6821 -1.54879 0.0850151
upperback 4.38179 -2.14378 1.32232
thorax -2.46262 -1.13613 1.64132
lowerneck -3.50369 -3.3062 -4.96455
upperneck -8.66652 -3.96953 10.1871
head -1.85092 -2.14144 4.28069
rclavicle 5.76476e-015 -8.34896e-015
rhumerus -38.622 18.9416 -73.9704
rradius 42.4328
rwrist -5.1941
rhand -21.3739 6.31281
rfingers 7.12502
rthumb 5.0133 -23.6079
lclavicle 5.76476e-015 -8.34896e-015
lhumerus 13.2601 -24.5281 44.3004
lradius 104.411
lwrist 28.0424
lhand -18.265 14.8949
lfingers 7.12502
lthumb 8.01461 44.7229
rfemur -50.6849 5.82336 15.1645
rtibia 68.659
rfoot -22.3976 -3.84943
rtoes -6.33746
lfemur -18.6405 7.56155 -28.3561
ltibia 29.7837
lfoot 11.4765 -4.60577
ltoes -5.4797
651
root -18.354 17.7312 -7.37809 365.968 -80.2986 -350.249
lowerback 12.2584 -1.7068 -0.0631015
upperback 4.27363 -2.36525 1.32434
thorax -2.33379 -1.24414 1.74459
lowerneck -3.82002 -3.18906 -4.93267
upperneck -8.2493 -3.8303 10.1039
head -1.66949 -2.05461 4.22591
rclavicle -3.29983e-014 2.18663e-014
rhumerus -39.7356 18.9544 -74.0338
rradius 42.6929
rwrist -5.11649
rhand -21.1797 6.25678
rfingers 7.12502
rthumb 5.20085 -23.6594
lclavicle -3.29983e-014 2.18663e-014
lhumerus 13.3154 -25.1878 44.4496
lradius 104.915
lwrist 28.0794
lhand -18.1627 14.6864
lfingers 7.12502
lthumb 8.11328 44.5106
rfemur -50.1538 6.09371 15.2411
rtibia 64.955
rfoot -22.5965 -3.47373
rtoes -6.93784
lfemur -17.013 7.74106 -28.0964
ltibia 29.0409
lfoot 11.9662 -4.32928
ltoes -4.83495
652
root -18.5843 17.7347 -7.35442 364.969 -80.647 -349.674
lowerback 11.8148 -1.86343 -0.23068
upperback 4.14922 -2.58605 1.30222
thorax -2.20967 -1.3515 1.83077
lowerneck -4.15278 -3.05472 -4.85139
upperneck -7.77754 -3.67275 9.97737
head -1.4711 -1.95745 4.14631
rclavicle -9.83984e-015 -1.70955e-014
rhumerus -40.807 18.9207 -74.0965
rradius 42.9521
rwrist -4.95567
rhand -20.9996 6.22694
rfingers 7.12502
rthumb 5.37472 -23.6849
lclavicle -9.83984e-015 -1.70955e-014
lhumerus 13.2062 -25.9613 44.7313
lradius 105.404
lwrist 28.0993
lhand -18.0914 14.4878
lfingers 7.12502
lthumb 8.18216 44.3094
rfemur -49.4897 6.25783 15.365
rtibia 61.1365
rfoot -22.7239 -3.08831
rtoes -7.42235
lfemur -15.3037 7.98478 -27.8929
ltibia 28.2052
lfoot 12.4606 -4.07171
ltoes -4.27939
